<svg width="33" height="32" viewBox="0 0 33 32" fill="none" xmlns="http://www.w3.org/2000/svg">
<g clip-path="url(#clip0_382_5930)">
<mask id="mask0_382_5930" style="mask-type:luminance" maskUnits="userSpaceOnUse" x="6" y="0" width="22" height="32">
<path d="M27.5448 0H6.37317V32H27.5448V0Z" fill="white"/>
</mask>
<g mask="url(#mask0_382_5930)">
<path d="M10.4126 32C7.4494 32 6.37317 22.4316 6.37317 16C6.37317 9.56843 7.4494 0 10.4126 0C13.3759 0 14.4535 9.56843 14.4535 16C14.4535 22.4316 13.3773 32 10.4126 32ZM10.4126 1.1035C9.38662 1.1035 7.47667 6.21919 7.47667 16C7.47667 25.7808 9.38662 30.8965 10.4126 30.8965C11.4386 30.8965 13.35 25.7808 13.35 16C13.35 6.21919 11.4386 1.1035 10.4126 1.1035Z" fill="#D3D3D3"/>
<path d="M13.7633 32C13.3604 31.9905 12.9763 31.8272 12.6899 31.5437C12.6362 31.4951 12.5926 31.4363 12.5616 31.3709C12.5306 31.3054 12.5128 31.2345 12.5092 31.1621C12.5056 31.0897 12.5163 31.0174 12.5406 30.9492C12.565 30.8809 12.6026 30.8182 12.6512 30.7645C12.6998 30.7108 12.7585 30.6672 12.824 30.6362C12.8895 30.6051 12.9604 30.5873 13.0328 30.5837C13.1051 30.5801 13.1775 30.5908 13.2457 30.6152C13.3139 30.6396 13.3767 30.6771 13.4304 30.7257C13.5174 30.8205 13.6355 30.8811 13.7633 30.8965C14.7879 30.8965 16.7007 25.7808 16.7007 16C16.7007 6.21919 14.7879 1.1035 13.7633 1.1035C13.6142 1.12849 13.4788 1.20583 13.3816 1.32161C13.2767 1.41812 13.1386 1.47035 12.996 1.46738C12.8535 1.46441 12.7177 1.40648 12.6169 1.30569C12.5161 1.2049 12.4582 1.06905 12.4552 0.926539C12.4522 0.784029 12.5045 0.645887 12.601 0.540987C12.7483 0.377192 12.9272 0.244845 13.1269 0.151883C13.3267 0.0589212 13.5431 0.00726053 13.7633 0C16.728 0 17.8028 9.56843 17.8028 16C17.8028 22.4316 16.7265 32 13.7633 32Z" fill="#D3D3D3"/>
<path d="M16.9791 32C16.5762 31.9905 16.1922 31.8272 15.9058 31.5437C15.8474 31.4964 15.7994 31.4377 15.7645 31.3712C15.7296 31.3047 15.7087 31.2318 15.7029 31.157C15.6972 31.0821 15.7067 31.0069 15.731 30.9359C15.7553 30.8648 15.7938 30.7995 15.8442 30.7438C15.8946 30.6882 15.9558 30.6434 16.0241 30.6122C16.0923 30.5809 16.1663 30.564 16.2413 30.5623C16.3164 30.5606 16.391 30.5742 16.4606 30.6023C16.5302 30.6304 16.5934 30.6724 16.6462 30.7257C16.7333 30.8205 16.8513 30.8811 16.9791 30.8965C18.0051 30.8965 19.9165 25.7808 19.9165 16C19.9165 6.21919 18.0037 1.1035 16.9791 1.1035C16.83 1.12849 16.6947 1.20583 16.5974 1.32161C16.4925 1.41812 16.3544 1.47035 16.2119 1.46738C16.0694 1.46441 15.9335 1.40648 15.8327 1.30569C15.7319 1.2049 15.674 1.06905 15.671 0.926539C15.6681 0.784029 15.7203 0.645887 15.8168 0.540987C15.9641 0.377192 16.143 0.244845 16.3427 0.151883C16.5425 0.0589212 16.7589 0.00726053 16.9791 0C19.9438 0 21.0186 9.56843 21.0186 16C21.0186 22.4316 19.9438 32 16.9791 32Z" fill="#D3D3D3"/>
<path d="M20.2882 32C19.8853 31.9905 19.5012 31.8272 19.2148 31.5437C19.1565 31.4964 19.1085 31.4377 19.0736 31.3712C19.0387 31.3047 19.0178 31.2318 19.012 31.157C19.0062 31.0821 19.0158 31.0069 19.0401 30.9359C19.0644 30.8648 19.1029 30.7995 19.1533 30.7438C19.2037 30.6882 19.2649 30.6434 19.3331 30.6122C19.4014 30.5809 19.4753 30.564 19.5504 30.5623C19.6254 30.5606 19.7001 30.5742 19.7697 30.6023C19.8393 30.6304 19.9024 30.6724 19.9553 30.7257C20.0423 30.8207 20.1604 30.8812 20.2882 30.8965C21.3128 30.8965 23.2256 25.7808 23.2256 16C23.2256 6.21919 21.3128 1.1035 20.2882 1.1035C20.1391 1.12849 20.0037 1.20583 19.9065 1.32161C19.8016 1.41812 19.6635 1.47035 19.5209 1.46738C19.3784 1.46441 19.2426 1.40648 19.1418 1.30569C19.041 1.2049 18.9831 1.06905 18.9801 0.926539C18.9771 0.784029 19.0294 0.645887 19.1259 0.540987C19.2731 0.377128 19.452 0.244737 19.6518 0.15177C19.8515 0.0588027 20.068 0.0071786 20.2882 0C23.2529 0 24.3277 9.56843 24.3277 16C24.3277 22.4316 23.2514 32 20.2882 32Z" fill="#D3D3D3"/>
<path d="M23.5054 32C23.1025 31.9905 22.7184 31.8272 22.432 31.5437C22.3236 31.4455 22.2586 31.3082 22.2513 31.1621C22.244 31.016 22.2951 30.8729 22.3933 30.7645C22.4915 30.656 22.6287 30.591 22.7749 30.5837C22.921 30.5765 23.064 30.6276 23.1725 30.7257C23.2613 30.8182 23.3785 30.8784 23.5054 30.8965C24.53 30.8965 26.4428 25.7808 26.4428 16C26.4428 6.21919 24.53 1.1035 23.5054 1.1035C23.3563 1.12849 23.2209 1.20583 23.1237 1.32161C23.0202 1.42532 22.8797 1.48366 22.7332 1.48379C22.5866 1.48393 22.4461 1.42585 22.3423 1.32233C22.2386 1.21881 22.1803 1.07834 22.1802 0.931808C22.18 0.785277 22.2381 0.644695 22.3416 0.540987C22.4891 0.376957 22.6682 0.244465 22.8682 0.151492C23.0682 0.0585188 23.285 0.00698695 23.5054 0C26.4701 0 27.5449 9.56843 27.5449 16C27.5449 22.4316 26.4686 32 23.5054 32Z" fill="black"/>
</g>
</g>
<defs>
<clipPath id="clip0_382_5930">
<rect width="21.1717" height="32" fill="white" transform="translate(6.37317)"/>
</clipPath>
</defs>
</svg>
