<svg width="22" height="22" viewBox="0 0 22 22" fill="none" xmlns="http://www.w3.org/2000/svg">
<path d="M20.625 20.5801L15.3488 15.3301M17.6325 9.45883C17.6325 11.0665 17.1558 12.6382 16.2626 13.9749C15.3694 15.3117 14.0998 16.3536 12.6145 16.9688C11.1292 17.5841 9.49474 17.745 7.91791 17.4314C6.34109 17.1177 4.89269 16.3435 3.75586 15.2067C2.61903 14.0699 1.84484 12.6215 1.5312 11.0447C1.21755 9.46784 1.37852 7.83343 1.99377 6.34809C2.60901 4.86276 3.6509 3.59322 4.98766 2.70002C6.32443 1.80682 7.89604 1.33008 9.50375 1.33008C10.5712 1.33008 11.6283 1.54033 12.6145 1.94884C13.6007 2.35735 14.4968 2.95611 15.2516 3.71093C16.0065 4.46576 16.6052 5.36186 17.0137 6.34809C17.4222 7.33432 17.6325 8.39135 17.6325 9.45883Z" stroke="#4A4846" stroke-width="0.875" stroke-linecap="round" stroke-linejoin="round"/>
</svg>
