<svg width="33" height="33" viewBox="0 0 33 33" fill="none" xmlns="http://www.w3.org/2000/svg">
<g clip-path="url(#clip0_382_5924)">
<mask id="mask0_382_5924" style="mask-type:luminance" maskUnits="userSpaceOnUse" x="0" y="0" width="33" height="32">
<path d="M32.4 0.450195H0.400024V31.5894H32.4V0.450195Z" fill="white"/>
</mask>
<g mask="url(#mask0_382_5924)">
<path d="M7.74551 14.1256C7.63949 14.126 7.53448 14.1049 7.43685 14.0636C7.33922 14.0222 7.25102 13.9614 7.17757 13.885L7.1417 13.8506C6.99407 13.695 6.9139 13.4874 6.91866 13.2729C6.92342 13.0585 7.01272 12.8546 7.16711 12.7058L8.98303 10.8853C9.13428 10.7407 9.33572 10.6603 9.545 10.6611C9.74696 10.6598 9.9419 10.7351 10.0905 10.8719L10.1862 10.972C10.2547 11.0493 10.3074 11.1394 10.3411 11.237C10.3749 11.3347 10.389 11.4381 10.3828 11.5412C10.3765 11.6443 10.35 11.7452 10.3047 11.8381C10.2594 11.931 10.1963 12.014 10.1189 12.0825L8.32541 13.876C8.25086 13.953 8.1617 14.0143 8.06315 14.0564C7.9646 14.0985 7.85865 14.1205 7.75149 14.1211" fill="black"/>
<path d="M7.74398 13.984C7.65685 13.9841 7.5706 13.9666 7.49045 13.9324C7.41029 13.8982 7.33791 13.8481 7.27766 13.7852L7.2403 13.7478C7.11975 13.6189 7.0547 13.4478 7.05918 13.2714C7.06365 13.095 7.13729 12.9274 7.26421 12.8047L9.08014 10.9843C9.20321 10.8686 9.36532 10.8035 9.53424 10.8018C9.70316 10.8001 9.86652 10.8621 9.99184 10.9754C9.99184 10.9754 10.0621 11.0486 10.0785 11.0665C10.1346 11.1299 10.1776 11.2036 10.2051 11.2836C10.2326 11.3636 10.2441 11.4483 10.2388 11.5327C10.2335 11.6171 10.2116 11.6997 10.1744 11.7756C10.1371 11.8516 10.0853 11.9194 10.0217 11.9752L8.21627 13.7822C8.15511 13.8463 8.0816 13.8974 8.00018 13.9323C7.91875 13.9673 7.83109 13.9853 7.74248 13.9855" fill="black"/>
<path d="M1.22805 20.6424C1.0081 20.6334 0.797553 20.5507 0.630209 20.4077C0.480251 20.2522 0.398085 20.0436 0.401727 19.8275C0.40537 19.6115 0.494523 19.4058 0.649639 19.2554L1.69585 18.2092C1.77132 18.1338 1.86089 18.0741 1.95946 18.0333C2.05802 17.9925 2.16365 17.9716 2.2703 17.9717C2.37696 17.9717 2.48256 17.9928 2.58107 18.0337C2.67958 18.0746 2.76908 18.1345 2.84445 18.2099C2.91982 18.2854 2.97958 18.375 3.02033 18.4735C3.06109 18.5721 3.08202 18.6777 3.08195 18.7844C3.08189 18.891 3.06081 18.9966 3.01993 19.0951C2.97905 19.1937 2.91917 19.2832 2.8437 19.3585L1.79749 20.4047C1.72298 20.4813 1.63401 20.5422 1.53574 20.584C1.43746 20.6259 1.33186 20.6477 1.22506 20.6484L1.22805 20.6424Z" fill="black"/>
<path d="M1.22805 20.4998C1.04085 20.4914 0.861912 20.4203 0.719888 20.2981C0.600804 20.1683 0.537001 19.9971 0.542024 19.8211C0.547047 19.645 0.6205 19.4778 0.746791 19.355L1.793 18.3088C1.85439 18.2425 1.92852 18.1893 2.01096 18.1524C2.09339 18.1155 2.18243 18.0956 2.27274 18.0939C2.36305 18.0922 2.45278 18.1087 2.53653 18.1426C2.62029 18.1764 2.69636 18.2268 2.76018 18.2907C2.824 18.3546 2.87426 18.4307 2.90794 18.5146C2.94163 18.5984 2.95805 18.6881 2.95622 18.7784C2.95439 18.8687 2.93435 18.9577 2.89729 19.0401C2.86024 19.1225 2.80693 19.1965 2.74058 19.2578L1.69436 20.304C1.63299 20.3674 1.55962 20.4178 1.47853 20.4525C1.39744 20.4871 1.31025 20.5052 1.22207 20.5058L1.22805 20.4998Z" fill="black"/>
<path d="M4.86265 24.2928C4.64605 24.288 4.43956 24.2002 4.28574 24.0477L4.26033 24.0223C4.11177 23.8667 4.03075 23.6587 4.03495 23.4437C4.03915 23.2287 4.12823 23.024 4.28275 22.8744L8.98474 18.1739C9.14021 18.0256 9.34805 17.9449 9.56284 17.9494C9.77764 17.9539 9.98194 18.0432 10.1311 18.1978L10.1998 18.2696C10.3326 18.4267 10.3988 18.6294 10.3843 18.8346C10.3698 19.0398 10.2757 19.2312 10.1221 19.3681L5.43508 24.0492C5.36068 24.1258 5.27173 24.1869 5.17343 24.2287C5.07513 24.2705 4.96948 24.2923 4.86265 24.2928Z" fill="black"/>
<path d="M4.86265 24.1513C4.68338 24.1466 4.51276 24.0733 4.38588 23.9466L4.36196 23.9226C4.23984 23.7939 4.17338 23.6223 4.17702 23.4449C4.18066 23.2675 4.25409 23.0987 4.38139 22.9751L9.08188 18.2746C9.21066 18.1534 9.38199 18.0878 9.55877 18.092C9.73556 18.0962 9.90358 18.1698 10.0265 18.297L10.0967 18.3702C10.2043 18.4993 10.2572 18.6654 10.244 18.8329C10.2309 19.0004 10.1528 19.1562 10.0265 19.267L5.33793 23.954C5.27661 24.0174 5.20325 24.0679 5.12215 24.1026C5.04104 24.1372 4.95383 24.1553 4.86564 24.1558L4.86265 24.1513Z" fill="black"/>
<path d="M15.0342 14.1244C14.9279 14.1249 14.8227 14.1038 14.7248 14.0625C14.6269 14.0211 14.5385 13.9603 14.4647 13.8838L14.4318 13.8509C14.2833 13.6954 14.2023 13.4874 14.2065 13.2724C14.2107 13.0574 14.2997 12.8527 14.4543 12.7031L15.5169 11.6389V11.6673L15.9444 11.2324L16.2433 10.9051L16.2777 10.8707C16.4276 10.7313 16.6267 10.6568 16.8313 10.6635C17.036 10.6702 17.2297 10.7576 17.3702 10.9066L17.4076 10.9454C17.5563 11.101 17.6373 11.3091 17.6328 11.5243C17.6284 11.7395 17.5387 11.9441 17.3837 12.0933L15.5901 13.8868C15.5156 13.9638 15.4264 14.0251 15.3279 14.0672C15.2293 14.1093 15.1234 14.1313 15.0162 14.1319" fill="black"/>
<path d="M15.0326 13.9836C14.9453 13.984 14.8589 13.9668 14.7785 13.9329C14.6981 13.899 14.6254 13.8491 14.5648 13.7863L14.5319 13.7519C14.4104 13.6231 14.3445 13.4516 14.3484 13.2746C14.3523 13.0976 14.4258 12.9292 14.5528 12.8059L15.5632 11.7925L15.7948 11.5758L16.0399 11.3382L16.3553 11.0019L16.3882 10.969C16.5113 10.8576 16.6731 10.7987 16.8391 10.8052C17.005 10.8116 17.1618 10.8827 17.276 11.0034L17.3163 11.0437C17.4385 11.1722 17.5049 11.3438 17.501 11.5211C17.4971 11.6984 17.4232 11.8669 17.2954 11.9898L15.5019 13.7833C15.4408 13.8475 15.3673 13.8986 15.2858 13.9336C15.2044 13.9685 15.1167 13.9865 15.0281 13.9866" fill="black"/>
<path d="M12.1498 31.5501C12.0435 31.5505 11.9383 31.5293 11.8404 31.488C11.7426 31.4466 11.6541 31.3859 11.5803 31.3095L11.5474 31.2766C11.3985 31.1212 11.3172 30.9132 11.3214 30.698C11.3256 30.4829 11.415 30.2781 11.5699 30.1287L16.2674 25.4312C16.4227 25.2823 16.6308 25.201 16.8459 25.2052C17.0611 25.2094 17.2658 25.2988 17.4152 25.4536C17.5669 25.6149 17.6493 25.8291 17.6449 26.0504C17.6404 26.2717 17.5494 26.4824 17.3913 26.6374L12.7237 31.305C12.6491 31.3819 12.56 31.4433 12.4614 31.4854C12.3629 31.5275 12.2569 31.5495 12.1498 31.5501Z" fill="black"/>
<path d="M12.1512 31.4086C12.064 31.4091 11.9775 31.3918 11.8971 31.3579C11.8167 31.324 11.744 31.2741 11.6834 31.2113L11.6505 31.1785C11.5287 31.0498 11.4626 30.8783 11.4665 30.7011C11.4704 30.524 11.5441 30.3555 11.6715 30.2324L16.366 25.5319C16.4946 25.41 16.6662 25.3439 16.8433 25.3478C17.0205 25.3517 17.1889 25.4254 17.3121 25.5528C17.4377 25.687 17.5058 25.865 17.5019 26.0488C17.498 26.2326 17.4223 26.4075 17.2911 26.5363L12.6295 31.2113C12.5683 31.2755 12.4948 31.3265 12.4134 31.3615C12.332 31.3964 12.2443 31.4145 12.1557 31.4146" fill="black"/>
<path d="M22.3227 14.0873C22.2165 14.0876 22.1113 14.0665 22.0135 14.0251C21.9156 13.9838 21.8271 13.9231 21.7533 13.8467L21.6322 13.7227C21.5245 13.57 21.4754 13.3837 21.4941 13.1978C21.5128 13.0119 21.5979 12.839 21.7339 12.7108L26.3806 7.99688C26.5392 7.84997 26.7486 7.77029 26.9648 7.77458C27.181 7.77887 27.3871 7.86679 27.5397 8.01987C27.6924 8.17295 27.7798 8.37926 27.7836 8.59544C27.7873 8.81162 27.7071 9.02083 27.5598 9.1791L22.8967 13.8422C22.8221 13.9192 22.733 13.9805 22.6344 14.0226C22.5359 14.0647 22.4299 14.0867 22.3227 14.0873Z" fill="black"/>
<path d="M22.3228 13.9468C22.2355 13.9472 22.1491 13.9299 22.0687 13.896C21.9883 13.8621 21.9156 13.8123 21.855 13.7495L21.7279 13.6194C21.6496 13.494 21.6169 13.3453 21.6354 13.1986C21.6539 13.0518 21.7225 12.9159 21.8296 12.8139L26.4808 8.09543C26.6114 7.96561 26.7882 7.893 26.9723 7.89356C27.1565 7.89412 27.3329 7.96781 27.4627 8.09842C27.5925 8.22903 27.6651 8.40586 27.6646 8.59001C27.664 8.77417 27.5903 8.95055 27.4597 9.08037L22.7966 13.7435C22.7354 13.8076 22.6619 13.8587 22.5805 13.8936C22.4991 13.9285 22.4114 13.9466 22.3228 13.9468Z" fill="black"/>
<path d="M8.48823 27.928C8.2701 27.9228 8.06214 27.8346 7.90684 27.6813L7.87994 27.6544C7.73033 27.4994 7.64823 27.2915 7.65159 27.0761C7.65495 26.8607 7.74351 26.6554 7.89787 26.5051L8.94409 25.4589C9.09916 25.3098 9.3059 25.2266 9.521 25.2266C9.73609 25.2266 9.94284 25.3098 10.0979 25.4589L10.1218 25.4828C10.2706 25.6383 10.3516 25.8465 10.3471 26.0617C10.3426 26.2768 10.253 26.4814 10.0979 26.6306L9.0517 27.6768C8.9776 27.7531 8.88912 27.8139 8.79137 27.8557C8.69363 27.8975 8.58856 27.9195 8.48226 27.9205" fill="black"/>
<path d="M8.48826 27.7859C8.30714 27.7816 8.13448 27.7083 8.00551 27.5811L7.97861 27.5542C7.91813 27.4913 7.87075 27.4171 7.83919 27.3357C7.80763 27.2544 7.79254 27.1676 7.79477 27.0804C7.79609 26.9923 7.81486 26.9053 7.85001 26.8245C7.88515 26.7437 7.93597 26.6707 7.99953 26.6096L9.04575 25.5634C9.14311 25.4699 9.26592 25.4071 9.39879 25.3831C9.53165 25.359 9.66866 25.3747 9.79266 25.4281C9.91665 25.4816 10.0221 25.5704 10.0958 25.6836C10.1695 25.7967 10.2082 25.9291 10.207 26.0641C10.2056 26.1522 10.1868 26.2391 10.1517 26.3199C10.1166 26.4007 10.0658 26.4738 10.0023 26.5349L8.95607 27.5811C8.89523 27.6439 8.82258 27.6941 8.7423 27.7287C8.66202 27.7633 8.57568 27.7817 8.48826 27.7829" fill="black"/>
<path d="M30.6145 20.6314C30.5082 20.6318 30.403 20.6107 30.3051 20.5693C30.2073 20.5279 30.1188 20.4672 30.045 20.3908L25.3774 15.7232C25.2951 15.6467 25.229 15.5545 25.1832 15.452C25.1373 15.3494 25.1126 15.2387 25.1105 15.1264C25.1084 15.0141 25.129 14.9025 25.171 14.7983C25.213 14.6942 25.2756 14.5995 25.3551 14.5201C25.4345 14.4407 25.5291 14.3781 25.6333 14.336C25.7375 14.294 25.849 14.2734 25.9614 14.2755C26.0737 14.2776 26.1844 14.3023 26.2869 14.3482C26.3895 14.3941 26.4817 14.4601 26.5581 14.5424L31.2138 19.2295C31.3635 19.3849 31.4453 19.5935 31.4414 19.8092C31.4375 20.025 31.3481 20.2304 31.1929 20.3803L31.1645 20.4087C31.017 20.5514 30.8196 20.6323 30.6145 20.6314Z" fill="black"/>
<path d="M30.6144 20.4912C30.5272 20.4916 30.4407 20.4743 30.3603 20.4404C30.2799 20.4065 30.2072 20.3567 30.1466 20.2939L25.4775 15.6248C25.3473 15.4946 25.2742 15.3179 25.2742 15.1338C25.2742 14.9496 25.3473 14.773 25.4775 14.6428C25.6077 14.5126 25.7844 14.4395 25.9685 14.4395C26.1527 14.4395 26.3293 14.5126 26.4595 14.6428L31.1136 19.3329C31.2366 19.4614 31.3036 19.6335 31.2999 19.8114C31.2963 19.9893 31.2223 20.1585 31.0942 20.2819L31.0658 20.3103C30.9455 20.4265 30.7847 20.4914 30.6174 20.4912" fill="black"/>
<path d="M20.4488 10.4603C20.2306 10.4553 20.0226 10.367 19.8674 10.2136L18.0903 8.43509C18.008 8.35866 17.9419 8.26642 17.896 8.16388C17.8502 8.06134 17.8255 7.95061 17.8234 7.8383C17.8213 7.72599 17.8419 7.61441 17.8839 7.51024C17.9259 7.40607 17.9885 7.31144 18.0679 7.23201C18.1474 7.15258 18.242 7.08999 18.3462 7.04797C18.4503 7.00595 18.5619 6.98536 18.6742 6.98745C18.7865 6.98954 18.8973 7.01425 18.9998 7.06011C19.1024 7.10597 19.1946 7.17203 19.271 7.25436L21.0436 9.06132C21.1519 9.17975 21.2237 9.32684 21.2506 9.48502C21.2775 9.6432 21.2582 9.80577 21.1952 9.95331C21.1321 10.1008 21.0279 10.2271 20.895 10.317C20.7621 10.4069 20.6062 10.4566 20.4458 10.4603" fill="black"/>
<path d="M20.4502 10.3161C20.269 10.3111 20.0964 10.2374 19.9675 10.1098L18.1904 8.33278C18.1259 8.2683 18.0748 8.19176 18.0399 8.10751C18.005 8.02327 17.9871 7.93298 17.9871 7.8418C17.9871 7.75062 18.005 7.66033 18.0399 7.57609C18.0748 7.49185 18.1259 7.4153 18.1904 7.35083C18.2549 7.28635 18.3314 7.23521 18.4157 7.20031C18.4999 7.16542 18.5902 7.14746 18.6814 7.14746C18.7726 7.14746 18.8629 7.16542 18.9471 7.20031C19.0314 7.23521 19.1079 7.28635 19.1724 7.35083L20.9435 9.15629C21.0662 9.28488 21.1332 9.45677 21.1299 9.63452C21.1265 9.81228 21.0531 9.9815 20.9255 10.1054C20.864 10.1699 20.7904 10.2216 20.7088 10.2575C20.6272 10.2934 20.5394 10.3128 20.4502 10.3146" fill="black"/>
<path d="M13.1855 3.17138C13.0793 3.17183 12.974 3.15074 12.8762 3.10938C12.7783 3.06802 12.6898 3.00726 12.6161 2.93075L11.5086 1.85315C11.4357 1.77677 11.3787 1.68675 11.3407 1.58826C11.3027 1.48977 11.2846 1.38474 11.2874 1.27922C11.2888 1.17236 11.3115 1.06684 11.3541 0.968823C11.3967 0.870803 11.4583 0.782239 11.5355 0.708289L11.5699 0.673913C11.7253 0.525633 11.9332 0.444915 12.148 0.449396C12.3628 0.453877 12.5671 0.543192 12.7162 0.697827L13.7878 1.77393C13.9361 1.9294 14.0168 2.13724 14.0124 2.35204C14.0079 2.56684 13.9186 2.77113 13.7639 2.92028L13.7325 2.95167C13.5854 3.09267 13.3893 3.17242 13.1855 3.17138Z" fill="black"/>
<path d="M13.1855 3.03091C13.0981 3.03115 13.0116 3.01366 12.9312 2.97949C12.8508 2.94532 12.7782 2.89519 12.7177 2.83213L11.6072 1.75005C11.548 1.68744 11.5016 1.61377 11.4708 1.53324C11.4401 1.45272 11.4255 1.36692 11.4279 1.28075C11.429 1.19261 11.4477 1.10558 11.4829 1.02474C11.518 0.94391 11.5689 0.870891 11.6326 0.809949L11.6685 0.774079C11.7972 0.652238 11.9687 0.58609 12.1458 0.590008C12.323 0.593926 12.4914 0.667594 12.6146 0.795003L13.6877 1.8726C13.8096 2.00102 13.8757 2.1725 13.8715 2.34952C13.8673 2.52655 13.7932 2.6947 13.6653 2.81719L13.6324 2.85156C13.5116 2.96654 13.3507 3.02982 13.184 3.02792" fill="black"/>
<path d="M13.1858 10.4572C13.0795 10.4576 12.9743 10.4365 12.8764 10.3952C12.7785 10.3538 12.6901 10.2931 12.6163 10.2166L7.91286 5.54745C7.75904 5.39011 7.6735 5.17844 7.67482 4.95841C7.67614 4.73838 7.7642 4.52775 7.91988 4.37226C8.07557 4.21677 8.28631 4.12898 8.50634 4.12794C8.72637 4.1269 8.93793 4.21271 9.09508 4.36672L13.7881 9.05974C13.9364 9.21521 14.0171 9.42305 14.0126 9.63785C14.0081 9.85264 13.9188 10.0569 13.7642 10.2061L13.7373 10.233C13.5895 10.3763 13.3916 10.4562 13.1858 10.4557" fill="black"/>
<path d="M13.1842 10.3171C13.097 10.3175 13.0105 10.3003 12.9301 10.2664C12.8497 10.2325 12.777 10.1826 12.7164 10.1198L8.01143 5.44771C7.88142 5.3175 7.80845 5.14097 7.80859 4.95696C7.80873 4.77295 7.88197 4.59653 8.01218 4.46651C8.14239 4.3365 8.31892 4.26353 8.50294 4.26367C8.68695 4.26381 8.86336 4.33705 8.99338 4.46726L13.6864 9.16028C13.8076 9.28906 13.8732 9.46038 13.869 9.63717C13.8648 9.81395 13.7911 9.98198 13.664 10.1049L13.6371 10.1318C13.5171 10.2488 13.3563 10.3147 13.1887 10.3156" fill="black"/>
<path d="M26.9916 24.3039C26.8853 24.3042 26.7801 24.283 26.6823 24.2417C26.5844 24.2003 26.496 24.1396 26.4221 24.0633L25.3759 23.0171C25.2937 22.9405 25.2277 22.8483 25.1819 22.7457C25.1361 22.6432 25.1114 22.5325 25.1093 22.4202C25.1072 22.3079 25.1277 22.1963 25.1696 22.0921C25.2115 21.9879 25.2739 21.8932 25.3532 21.8137C25.4324 21.7341 25.5269 21.6713 25.6309 21.629C25.735 21.5867 25.8465 21.5658 25.9587 21.5675C26.071 21.5692 26.1819 21.5935 26.2846 21.6389C26.3873 21.6843 26.4798 21.7499 26.5566 21.8318L27.5894 22.9035C27.739 23.0587 27.8208 23.2669 27.8169 23.4825C27.813 23.698 27.7236 23.9031 27.5685 24.0528L27.5386 24.0827C27.3913 24.2245 27.1945 24.3033 26.9901 24.3024" fill="black"/>
<path d="M26.9916 24.1628C26.9044 24.1632 26.8179 24.146 26.7375 24.1121C26.6571 24.0782 26.5844 24.0283 26.5238 23.9655L25.4776 22.9193C25.4129 22.8548 25.3616 22.7783 25.3265 22.6939C25.2914 22.6096 25.2733 22.5192 25.2732 22.4279C25.2731 22.3366 25.2909 22.2461 25.3257 22.1617C25.3605 22.0773 25.4116 22.0005 25.4761 21.9359C25.5406 21.8712 25.6172 21.8199 25.7015 21.7848C25.7858 21.7497 25.8762 21.7316 25.9675 21.7314C26.0589 21.7313 26.1493 21.7492 26.2337 21.784C26.3182 21.8188 26.3949 21.8699 26.4596 21.9344L27.4893 23.0045C27.5505 23.068 27.5985 23.1429 27.6307 23.225C27.6629 23.307 27.6786 23.3946 27.677 23.4827C27.6753 23.5709 27.6563 23.6578 27.621 23.7386C27.5858 23.8194 27.5349 23.8924 27.4714 23.9536L27.44 23.985C27.3196 24.1009 27.1588 24.1652 26.9916 24.1643" fill="black"/>
<path d="M5.89715 17.7503C5.79188 17.7505 5.68765 17.7295 5.59061 17.6887C5.49358 17.6479 5.40571 17.588 5.3322 17.5127L0.624235 12.8107C0.475587 12.6554 0.394619 12.4475 0.399103 12.2326C0.403586 12.0177 0.493153 11.8133 0.648148 11.6643L0.682524 11.63C0.837995 11.4817 1.04584 11.401 1.26063 11.4055C1.47543 11.4099 1.67972 11.4992 1.82888 11.6539L6.49798 16.3514C6.64691 16.5067 6.72818 16.7148 6.72398 16.9299C6.71978 17.1451 6.63045 17.3498 6.47556 17.4992L6.44716 17.5276C6.29972 17.6703 6.10233 17.7512 5.89715 17.7503Z" fill="black"/>
<path d="M5.8971 17.6088C5.80984 17.6093 5.7234 17.592 5.64299 17.5581C5.56259 17.5242 5.48989 17.4743 5.42929 17.4115L0.724319 12.7125C0.663916 12.6496 0.616572 12.5754 0.585019 12.494C0.553467 12.4127 0.538331 12.3259 0.540485 12.2388C0.541801 12.1506 0.560575 12.0637 0.595721 11.9829C0.630868 11.902 0.681688 11.829 0.745244 11.768L0.781114 11.7321C0.909768 11.6102 1.08131 11.5441 1.25845 11.548C1.4356 11.5519 1.60405 11.6256 1.72719 11.753L6.39928 16.4595C6.52149 16.588 6.58789 16.7596 6.58397 16.9368C6.58005 17.1141 6.50613 17.2826 6.37836 17.4056L6.34697 17.4369C6.22675 17.5533 6.0659 17.6182 5.8986 17.6178" fill="black"/>
<path d="M13.1871 25.0436C13.081 25.044 12.976 25.0229 12.8784 24.9816C12.7808 24.9402 12.6926 24.8794 12.6191 24.803L10.8331 23.0184C10.6717 22.863 10.5784 22.6501 10.5733 22.4261C10.5683 22.2022 10.652 21.9853 10.8062 21.8228L10.8271 21.8018C10.9826 21.6536 11.1904 21.5728 11.4052 21.5773C11.62 21.5818 11.8243 21.6711 11.9735 21.8258L13.7894 23.6477C13.9377 23.8031 14.0184 24.011 14.0139 24.2258C14.0094 24.4406 13.9201 24.6449 13.7655 24.794L13.7356 24.8239C13.5885 24.9662 13.3917 25.0441 13.1871 25.0436Z" fill="black"/>
<path d="M13.187 24.9028C13.1 24.9032 13.0138 24.8859 12.9336 24.852C12.8535 24.8181 12.781 24.7682 12.7207 24.7055L10.9272 22.912C10.794 22.7827 10.7168 22.6062 10.7124 22.4206C10.7079 22.235 10.7765 22.0551 10.9033 21.9195C10.966 21.8559 11.0407 21.8054 11.123 21.7707C11.2054 21.7361 11.2937 21.7181 11.3831 21.7178C11.4732 21.7174 11.5625 21.7354 11.6455 21.7706C11.7285 21.8058 11.8034 21.8575 11.8658 21.9225L13.6832 23.74C13.8044 23.8687 13.87 24.0401 13.8658 24.2169C13.8616 24.3936 13.788 24.5617 13.6608 24.6845L13.6294 24.7159C13.5093 24.8324 13.3484 24.8973 13.1811 24.8968" fill="black"/>
<path d="M19.7059 31.5891C19.5997 31.5895 19.4945 31.5684 19.3966 31.527C19.2988 31.4857 19.2103 31.4249 19.1365 31.3485L18.0903 30.3023C18.008 30.2258 17.9419 30.1336 17.896 30.0311C17.8502 29.9285 17.8255 29.8178 17.8234 29.7055C17.8213 29.5932 17.8419 29.4816 17.8839 29.3774C17.9259 29.2733 17.9885 29.1786 18.0679 29.0992C18.1474 29.0198 18.242 28.9572 18.3462 28.9152C18.4503 28.8731 18.5619 28.8526 18.6742 28.8546C18.7865 28.8567 18.8973 28.8814 18.9998 28.9273C19.1024 28.9732 19.1946 29.0392 19.271 29.1216L20.3038 30.1887C20.4536 30.3437 20.5357 30.5519 20.532 30.7674C20.5284 30.9829 20.4393 31.1882 20.2844 31.338L20.2619 31.3679C20.1144 31.5105 19.9171 31.5898 19.7119 31.5891" fill="black"/>
<path d="M19.706 31.4486C19.6188 31.4491 19.5323 31.4318 19.4519 31.3979C19.3715 31.364 19.2988 31.3141 19.2382 31.2514L18.192 30.2051C18.0606 30.0751 17.9862 29.8982 17.9852 29.7134C17.9843 29.5285 18.0568 29.3509 18.1868 29.2195C18.3168 29.0881 18.4937 29.0137 18.6785 29.0127C18.8634 29.0117 19.041 29.0842 19.1725 29.2142L20.2037 30.2799C20.3271 30.4081 20.3946 30.5799 20.3915 30.7578C20.3884 30.9357 20.315 31.1051 20.1873 31.2289L20.1574 31.2588C20.0371 31.375 19.8763 31.4399 19.709 31.4397" fill="black"/>
<path d="M23.3244 27.9261C23.2182 27.9266 23.1129 27.9056 23.015 27.8642C22.9171 27.8228 22.8287 27.762 22.755 27.6855L18.0874 23.0164C17.9433 22.857 17.8661 22.6483 17.8716 22.4335C17.8772 22.2187 17.9651 22.0143 18.1172 21.8626C18.2693 21.7108 18.474 21.6234 18.6888 21.6184C18.9036 21.6134 19.1121 21.6912 19.2711 21.8356L23.9238 26.5286C24.0733 26.6839 24.1552 26.8921 24.1512 27.1076C24.1473 27.3232 24.058 27.5283 23.9028 27.678L23.8714 27.7094C23.7244 27.8506 23.5283 27.9294 23.3244 27.9291" fill="black"/>
<path d="M23.3258 27.7846C23.2385 27.7852 23.152 27.7681 23.0716 27.7341C22.9912 27.7002 22.9185 27.6503 22.858 27.5873L18.1874 22.9167C18.1218 22.8523 18.0697 22.7754 18.034 22.6907C17.9982 22.606 17.9796 22.515 17.9793 22.4231C17.9789 22.3311 17.9967 22.24 18.0317 22.1549C18.0667 22.0699 18.1182 21.9926 18.1832 21.9276C18.2483 21.8626 18.3255 21.8111 18.4106 21.7761C18.4956 21.7411 18.5867 21.7233 18.6787 21.7236C18.7706 21.724 18.8616 21.7426 18.9463 21.7783C19.0311 21.8141 19.1079 21.8662 19.1724 21.9318L23.825 26.6248C23.9475 26.7533 24.0142 26.9251 24.0106 27.1026C24.0069 27.2801 23.9332 27.449 23.8056 27.5724L23.7712 27.6068C23.6504 27.7216 23.4895 27.7849 23.3228 27.7831" fill="black"/>
<path d="M13.181 17.7483C13.0748 17.7487 12.9696 17.7276 12.8717 17.6862C12.7739 17.6448 12.6854 17.5841 12.6116 17.5077L10.7897 15.7142C10.6362 15.5565 10.5511 15.3445 10.5529 15.1245C10.5547 14.9044 10.6433 14.6939 10.7994 14.5387C10.9556 14.3836 11.1666 14.2963 11.3867 14.2959C11.6068 14.2955 11.8182 14.3819 11.9749 14.5364L13.7849 16.3464C13.9331 16.5019 14.0139 16.7097 14.0094 16.9245C14.0049 17.1393 13.9156 17.3436 13.7609 17.4927L13.7325 17.5211C13.585 17.6637 13.3877 17.743 13.1825 17.7423" fill="black"/>
<path d="M13.1811 17.6084C13.0938 17.6089 13.0074 17.5916 12.927 17.5577C12.8466 17.5238 12.7739 17.474 12.7133 17.4112L10.8884 15.6176C10.7588 15.4868 10.6864 15.3099 10.6873 15.1257C10.6881 14.9416 10.7621 14.7653 10.8929 14.6357C11.0237 14.5061 11.2006 14.4337 11.3848 14.4346C11.5689 14.4354 11.7452 14.5094 11.8748 14.6402L13.6848 16.4501C13.806 16.5789 13.8716 16.7502 13.8674 16.927C13.8632 17.1038 13.7895 17.2718 13.6624 17.3947L13.6325 17.4246C13.5121 17.5408 13.3514 17.6057 13.1841 17.6055" fill="black"/>
<path d="M5.89245 10.46C5.7862 10.4605 5.68096 10.4394 5.58309 10.398C5.48522 10.3567 5.39674 10.2959 5.32302 10.2194L4.23794 9.17316C4.16142 9.0961 4.10089 9.00465 4.05985 8.9041C4.01881 8.80355 3.99806 8.69588 3.99881 8.58728C3.99748 8.42152 4.04549 8.25911 4.13674 8.12072C4.22798 7.98232 4.35833 7.8742 4.5112 7.81011C4.66407 7.74601 4.83255 7.72883 4.99521 7.76077C5.15787 7.7927 5.30736 7.87231 5.42465 7.98944L6.49627 9.06106C6.64455 9.21654 6.72527 9.42438 6.72079 9.63917C6.71631 9.85397 6.62699 10.0583 6.47236 10.2074L6.44545 10.2343C6.2977 10.3776 6.09979 10.4576 5.89395 10.457" fill="black"/>
<path d="M5.89392 10.3194C5.80666 10.3198 5.72022 10.3026 5.63981 10.2687C5.55941 10.2348 5.48671 10.1849 5.42612 10.1221L4.33805 9.06844C4.27484 9.00473 4.22487 8.92914 4.19101 8.84603C4.15715 8.76292 4.14007 8.67393 4.14077 8.58419C4.14124 8.44708 4.18226 8.31318 4.25865 8.19933C4.33505 8.08548 4.44342 7.99677 4.57011 7.94437C4.69681 7.89196 4.83618 7.87821 4.97068 7.90483C5.10517 7.93144 5.22879 7.99725 5.32598 8.09396L6.39611 9.16559C6.5173 9.29436 6.5829 9.46569 6.5787 9.64248C6.57451 9.81926 6.50085 9.98729 6.37369 10.1102L6.34678 10.1371C6.22677 10.2541 6.06603 10.32 5.89841 10.3209" fill="black"/>
<path d="M22.2928 6.93936C22.1866 6.93973 22.0814 6.9186 21.9835 6.87724C21.8857 6.83589 21.7972 6.77517 21.7234 6.69873L21.6905 6.66585C21.5422 6.51038 21.4615 6.30254 21.466 6.08774C21.4705 5.87294 21.5598 5.66865 21.7144 5.5195L22.7771 4.45535V4.48374L23.206 4.04882L23.5049 3.7215L23.5393 3.68713C23.6893 3.54768 23.8883 3.47319 24.093 3.47991C24.2977 3.48663 24.4914 3.57401 24.6319 3.723L24.6692 3.76186C24.8174 3.91757 24.8982 4.12547 24.894 4.34039C24.8898 4.55531 24.801 4.7599 24.6468 4.9097L22.8533 6.70321C22.7787 6.78012 22.6895 6.8414 22.591 6.88349C22.4925 6.92557 22.3865 6.94761 22.2794 6.94833" fill="black"/>
<path d="M22.3018 6.79272C22.2145 6.79316 22.1281 6.7759 22.0477 6.74199C21.9673 6.70808 21.8946 6.65823 21.834 6.59544L21.8011 6.56106C21.7406 6.49818 21.6933 6.42393 21.6617 6.3426C21.6301 6.26127 21.615 6.17448 21.6173 6.08728C21.6185 5.99892 21.6372 5.91169 21.6723 5.83062C21.7075 5.74955 21.7584 5.67626 21.822 5.61498L22.8324 4.60315L23.064 4.38643L23.3092 4.14879L23.6484 3.7871C23.709 3.7299 23.7803 3.68522 23.8582 3.65561C23.9361 3.626 24.0191 3.61204 24.1024 3.61454C24.1857 3.61704 24.2677 3.63595 24.3437 3.67017C24.4196 3.7044 24.4881 3.75327 24.5452 3.814L24.5855 3.85435C24.707 3.98319 24.7729 4.15465 24.769 4.33168C24.7651 4.50871 24.6917 4.67709 24.5646 4.80043L22.7711 6.59394C22.71 6.65813 22.6365 6.70924 22.5551 6.74418C22.4736 6.77912 22.3859 6.79716 22.2973 6.79721" fill="black"/>
<path d="M29.7937 14.1244C29.6874 14.1249 29.5822 14.1038 29.4843 14.0625C29.3864 14.0211 29.298 13.9603 29.2242 13.8838L29.1914 13.8509C29.0428 13.6954 28.9618 13.4874 28.966 13.2724C28.9702 13.0574 29.0593 12.8527 29.2138 12.7031L30.2764 11.6389V11.6673L30.7039 11.2324L31.0028 10.9051L31.0372 10.8707C31.1872 10.7313 31.3862 10.6568 31.5909 10.6635C31.7955 10.6702 31.9892 10.7576 32.1297 10.9066L32.1671 10.9454C32.3158 11.101 32.3968 11.3091 32.3924 11.5243C32.3879 11.7395 32.2983 11.9441 32.1432 12.0933L30.3497 13.8868C30.2752 13.9638 30.186 14.0252 30.0875 14.0673C29.9889 14.1094 29.8829 14.1314 29.7757 14.1319" fill="black"/>
<path d="M29.7922 13.9836C29.705 13.984 29.6185 13.9668 29.5381 13.9329C29.4577 13.899 29.385 13.8491 29.3244 13.7863L29.2915 13.7519C29.1701 13.6231 29.1042 13.4516 29.1081 13.2746C29.112 13.0976 29.1854 12.9292 29.3125 12.8059L30.3228 11.7925L30.5545 11.5758L30.7996 11.3382L31.115 11.0019L31.1478 10.969C31.2709 10.8576 31.4328 10.7987 31.5987 10.8052C31.7647 10.8116 31.9215 10.8827 32.0356 11.0034L32.076 11.0437C32.1982 11.1722 32.2646 11.3438 32.2607 11.5211C32.2567 11.6984 32.1828 11.8669 32.055 11.9898L30.2615 13.7833C30.2004 13.8475 30.1269 13.8986 30.0455 13.9336C29.9641 13.9685 29.8764 13.9865 29.7878 13.9866" fill="black"/>
<path d="M22.3004 21.3803C22.1941 21.3807 22.0889 21.3595 21.9911 21.3182C21.8932 21.2768 21.8047 21.2161 21.7309 21.1397L21.6995 21.1068C21.5506 20.9515 21.4693 20.7434 21.4735 20.5282C21.4777 20.3131 21.5671 20.1084 21.722 19.9589L22.7846 18.8948V18.9232L23.2136 18.4883L23.5125 18.161L23.5469 18.1266C23.6968 17.9871 23.8958 17.9126 24.1005 17.9194C24.3052 17.9261 24.4989 18.0135 24.6394 18.1624L24.6783 18.2013C24.8258 18.3571 24.906 18.5648 24.9016 18.7794C24.8971 18.994 24.8083 19.1981 24.6543 19.3477L22.8608 21.1412C22.7862 21.2181 22.6971 21.2794 22.5985 21.3214C22.5 21.3635 22.3941 21.3856 22.2869 21.3863" fill="black"/>
<path d="M22.3003 21.2401C22.213 21.2405 22.1266 21.2232 22.0462 21.1893C21.9658 21.1554 21.8931 21.1056 21.8325 21.0428L21.7996 21.0084C21.6781 20.8796 21.6122 20.7081 21.6161 20.5311C21.62 20.354 21.6935 20.1857 21.8205 20.0623L22.8309 19.049L23.0625 18.8323L23.3076 18.5946L23.623 18.2583L23.6559 18.2255C23.7788 18.1136 23.9407 18.0546 24.1068 18.061C24.2729 18.0675 24.4297 18.1389 24.5437 18.2598L24.584 18.3002C24.7055 18.429 24.7714 18.6005 24.7675 18.7775C24.7636 18.9546 24.6902 19.1229 24.5631 19.2463L22.7696 21.0398C22.7085 21.104 22.635 21.1551 22.5535 21.19C22.4721 21.225 22.3844 21.243 22.2958 21.2431" fill="black"/>
<path d="M15.0461 21.3803C14.9399 21.3807 14.8347 21.3595 14.7368 21.3182C14.6389 21.2768 14.5505 21.2161 14.4767 21.1397L14.4438 21.1068C14.2952 20.9513 14.2142 20.7433 14.2184 20.5283C14.2226 20.3132 14.3117 20.1086 14.4662 19.9589L15.5289 18.8948V18.9232L15.9563 18.4883L16.2552 18.161L16.2896 18.1266C16.4396 17.9871 16.6386 17.9126 16.8433 17.9194C17.048 17.9261 17.2417 18.0135 17.3822 18.1624L17.421 18.2013C17.5689 18.357 17.6494 18.5647 17.6449 18.7794C17.6405 18.9941 17.5514 19.1983 17.3971 19.3477L15.6036 21.1412C15.5291 21.2181 15.4399 21.2795 15.3413 21.3216C15.2428 21.3636 15.1368 21.3856 15.0297 21.3863" fill="black"/>
<path d="M15.0445 21.2401C14.9573 21.2405 14.8708 21.2232 14.7904 21.1893C14.71 21.1554 14.6373 21.1056 14.5767 21.0428L14.5439 21.0084C14.4224 20.8796 14.3565 20.7081 14.3604 20.5311C14.3643 20.354 14.4377 20.1857 14.5648 20.0623L15.5751 19.049L15.8068 18.8323L16.0519 18.5946L16.3673 18.2583L16.4001 18.2255C16.5231 18.1136 16.685 18.0546 16.8511 18.061C17.0171 18.0675 17.174 18.1389 17.2879 18.2598L17.3283 18.3002C17.4498 18.429 17.5157 18.6005 17.5118 18.7775C17.5078 18.9546 17.4344 19.1229 17.3074 19.2463L15.5139 21.0398C15.4527 21.1039 15.3792 21.155 15.2978 21.1899C15.2163 21.2248 15.1287 21.2429 15.0401 21.2431" fill="black"/>
<path d="M20.4772 17.7503C20.3709 17.7506 20.2657 17.7295 20.1679 17.6882C20.07 17.6468 19.9815 17.5861 19.9077 17.5096L18.0858 15.7161C17.9323 15.5584 17.8472 15.3465 17.849 15.1264C17.8509 14.9063 17.9394 14.6958 18.0956 14.5407C18.2517 14.3856 18.4627 14.2983 18.6828 14.2979C18.9029 14.2974 19.1143 14.3839 19.2711 14.5384L21.081 16.3483C21.2293 16.5038 21.31 16.7117 21.3055 16.9265C21.301 17.1412 21.2117 17.3455 21.0571 17.4947L21.0287 17.5231C20.8812 17.6656 20.6838 17.745 20.4787 17.7443" fill="black"/>
<path d="M20.4757 17.6085C20.3885 17.6089 20.302 17.5916 20.2216 17.5577C20.1412 17.5238 20.0685 17.474 20.0079 17.4112L18.183 15.6177C18.0625 15.4851 17.9978 15.3111 18.0024 15.132C18.0071 14.9529 18.0807 14.7825 18.208 14.6564C18.3353 14.5303 18.5063 14.4582 18.6855 14.4552C18.8646 14.4522 19.038 14.5184 19.1695 14.6402L20.9794 16.4502C21.101 16.5788 21.1668 16.7502 21.1626 16.9271C21.1584 17.104 21.0845 17.2721 20.957 17.3947L20.9271 17.4246C20.8069 17.541 20.646 17.6059 20.4787 17.6055" fill="black"/>
<path d="M15.0759 6.78346C14.9697 6.78383 14.8645 6.7627 14.7666 6.72134C14.6688 6.67999 14.5803 6.61927 14.5065 6.54283L14.3854 6.41878C14.2773 6.26603 14.228 6.07933 14.2467 5.8931C14.2653 5.70687 14.3507 5.53367 14.4871 5.40544L19.1338 0.691502C19.2913 0.537847 19.5031 0.452545 19.7231 0.454123C19.9432 0.455701 20.1537 0.544031 20.309 0.699929C20.4643 0.855827 20.5519 1.0667 20.5526 1.28676C20.5534 1.50681 20.4672 1.71828 20.313 1.87522L15.6499 6.53984C15.5753 6.61681 15.4862 6.67814 15.3876 6.72023C15.2891 6.76232 15.1831 6.78283 15.0759 6.78346Z" fill="black"/>
<path d="M15.076 6.64207C14.9887 6.64251 14.9023 6.62525 14.8219 6.59134C14.7415 6.55743 14.6688 6.50757 14.6082 6.44478L14.4811 6.31475C14.4028 6.18929 14.3701 6.04064 14.3886 5.89388C14.4071 5.74712 14.4757 5.61124 14.5828 5.50917L19.2339 0.790744C19.3645 0.660926 19.5414 0.58831 19.7255 0.58887C19.9097 0.589431 20.0861 0.663122 20.2159 0.793733C20.3457 0.924343 20.4183 1.10117 20.4177 1.28533C20.4172 1.46948 20.3435 1.64586 20.2129 1.77568L15.5498 6.43881C15.4886 6.50292 15.4151 6.55399 15.3337 6.58892C15.2522 6.62386 15.1646 6.64194 15.076 6.64207Z" fill="black"/>
</g>
</g>
<defs>
<clipPath id="clip0_382_5924">
<rect width="32" height="31.1392" fill="white" transform="translate(0.400024 0.450195)"/>
</clipPath>
</defs>
</svg>
