<svg width="14" height="15" viewBox="0 0 14 15" fill="none" xmlns="http://www.w3.org/2000/svg">
<g clip-path="url(#clip0_498_2839)">
<path d="M4.65667 12.951C4.45049 12.9509 4.24844 12.8932 4.07334 12.7843L4.01779 12.751C3.8724 12.6488 3.75363 12.5132 3.67147 12.3557C3.5893 12.1981 3.54612 12.0231 3.54556 11.8454V7.73986L0.312231 4.50652C0.209252 4.4027 0.127779 4.27957 0.0724852 4.1442C0.0171912 4.00882 -0.0108366 3.86386 -0.00999119 3.71764V1.93986C-0.00852259 1.64761 0.108603 1.36783 0.315776 1.1617C0.522949 0.955569 0.803313 0.839854 1.09556 0.839858H9.99001C10.1357 0.839126 10.28 0.867182 10.4148 0.922413C10.5496 0.977645 10.6721 1.05896 10.7753 1.1617C10.8786 1.26443 10.9605 1.38655 11.0164 1.52105C11.0723 1.65554 11.1011 1.79976 11.1011 1.94541V3.72319C11.0999 4.0174 10.982 4.29911 10.7733 4.50652L7.54001 7.74541V10.951C7.54066 11.1564 7.48376 11.358 7.37575 11.5327C7.26774 11.7075 7.11295 11.8485 6.9289 11.9399L5.15112 12.8287C4.99799 12.9072 4.82873 12.9491 4.65667 12.951ZM4.4289 12.2121L6.65667 11.0954V7.37319L10.2122 3.80652V1.71764H0.867786V3.81764L4.42334 7.37319L4.4289 12.2121Z" fill="white"/>
</g>
<defs>
<clipPath id="clip0_498_2839">
<rect width="13.3333" height="14.5333" fill="white" transform="translate(-0.0100098 0.240234)"/>
</clipPath>
</defs>
</svg>
