<svg width="33" height="32" viewBox="0 0 33 32" fill="none" xmlns="http://www.w3.org/2000/svg">
<g clip-path="url(#clip0_406_2254)">
<mask id="mask0_406_2254" style="mask-type:luminance" maskUnits="userSpaceOnUse" x="0" y="0" width="33" height="32">
<path d="M32.697 0H0.992432V31.99H32.697V0Z" fill="white"/>
</mask>
<g mask="url(#mask0_406_2254)">
<path d="M8.70397 15.4188C8.5696 15.4188 8.44074 15.3655 8.34573 15.2705C8.25072 15.1755 8.19734 15.0466 8.19734 14.9123V12.7932L5.91174 14.9754C5.86402 15.0232 5.80724 15.0609 5.74474 15.0864C5.68224 15.1119 5.61526 15.1246 5.54776 15.1239C5.48026 15.1231 5.41359 15.1089 5.35167 15.082C5.28974 15.0552 5.23381 15.0162 5.18716 14.9674C5.14052 14.9186 5.10409 14.861 5.08003 14.7979C5.05596 14.7349 5.04475 14.6676 5.04704 14.6002C5.04933 14.5327 5.06508 14.4664 5.09336 14.4051C5.12165 14.3438 5.1619 14.2888 5.21175 14.2433L8.19605 11.392V8.93266L5.38836 11.7401C5.34129 11.7871 5.28542 11.8244 5.22393 11.8499C5.16244 11.8754 5.09654 11.8885 5.02998 11.8885C4.96342 11.8885 4.89752 11.8754 4.83603 11.8499C4.77454 11.8244 4.71867 11.7871 4.67161 11.7401C4.62454 11.693 4.58721 11.6371 4.56174 11.5757C4.53627 11.5142 4.52316 11.4483 4.52316 11.3817C4.52316 11.3152 4.53627 11.2493 4.56174 11.1878C4.58721 11.1263 4.62454 11.0704 4.67161 11.0234L7.48059 8.21598H5.02096L2.16943 11.2013C2.0766 11.2985 1.94894 11.3549 1.81452 11.3581C1.68011 11.3612 1.54995 11.3108 1.45268 11.218C1.35541 11.1252 1.299 10.9976 1.29586 10.8632C1.29271 10.7288 1.3431 10.5986 1.43592 10.5014L3.6184 8.21598H1.49006C1.35994 8.20836 1.23772 8.15101 1.14871 8.0558C1.0597 7.96059 1.0107 7.8348 1.01186 7.70447C1.01302 7.57414 1.06425 7.44925 1.15494 7.35564C1.24563 7.26202 1.36885 7.20685 1.49909 7.20155H3.6184L1.43592 4.91747C1.38996 4.86931 1.35393 4.81258 1.3299 4.7505C1.30587 4.68842 1.2943 4.62221 1.29586 4.55566C1.299 4.42126 1.35541 4.29361 1.45268 4.2008C1.54995 4.10798 1.68011 4.05761 1.81452 4.06075C1.88108 4.0623 1.94668 4.07695 2.00757 4.10386C2.06847 4.13076 2.12347 4.1694 2.16943 4.21755L5.02096 7.20284H7.48059L4.67161 4.39543C4.57656 4.3004 4.52316 4.1715 4.52316 4.0371C4.52316 3.90269 4.57656 3.7738 4.67161 3.67876C4.76665 3.58372 4.89556 3.53033 5.02998 3.53033C5.1644 3.53033 5.29331 3.58372 5.38836 3.67876L8.19605 6.48617V4.02678L5.21175 1.17684C5.16358 1.13088 5.12495 1.07589 5.09804 1.015C5.07113 0.954116 5.05648 0.888525 5.05492 0.821975C5.05337 0.755426 5.06494 0.689221 5.08897 0.627142C5.113 0.565063 5.14903 0.508325 5.19499 0.460167C5.24095 0.412009 5.29595 0.373375 5.35684 0.34647C5.41774 0.319565 5.48334 0.304917 5.54989 0.303361C5.61645 0.301805 5.68266 0.313372 5.74475 0.337401C5.80683 0.361431 5.86358 0.397453 5.91174 0.44341L8.19605 2.62566V0.506571C8.19605 0.440047 8.20916 0.374174 8.23462 0.312714C8.26008 0.251254 8.2974 0.195411 8.34444 0.148371C8.39149 0.101332 8.44734 0.064018 8.5088 0.0385604C8.57027 0.0131028 8.63615 0 8.70268 0C8.76921 0 8.83509 0.0131028 8.89655 0.0385604C8.95802 0.064018 9.01387 0.101332 9.06092 0.148371C9.10796 0.195411 9.14528 0.251254 9.17074 0.312714C9.1962 0.374174 9.2093 0.440047 9.2093 0.506571V2.62566L11.4949 0.444699C11.5426 0.396953 11.5994 0.359223 11.6619 0.333726C11.7244 0.30823 11.7914 0.29548 11.8589 0.296227C11.9264 0.296974 11.9931 0.311202 12.055 0.338075C12.1169 0.364949 12.1728 0.403926 12.2195 0.452716C12.2661 0.501507 12.3026 0.559126 12.3266 0.622191C12.3507 0.685256 12.3619 0.752493 12.3596 0.819952C12.3573 0.887412 12.3416 0.953734 12.3133 1.01502C12.285 1.07631 12.2447 1.13133 12.1949 1.17684L9.21059 4.02807V6.48617L12.0183 3.68005C12.0654 3.63299 12.1212 3.59566 12.1827 3.5702C12.2442 3.54473 12.3101 3.53162 12.3767 3.53162C12.4432 3.53162 12.5091 3.54473 12.5706 3.5702C12.6321 3.59566 12.688 3.63299 12.735 3.68005C12.7821 3.72711 12.8194 3.78297 12.8449 3.84446C12.8704 3.90594 12.8835 3.97184 12.8835 4.03839C12.8835 4.10494 12.8704 4.17083 12.8449 4.23232C12.8194 4.2938 12.7821 4.34967 12.735 4.39672L9.92605 7.20413H12.387L15.2372 4.21884C15.33 4.12158 15.4577 4.06518 15.5921 4.06204C15.7265 4.05889 15.8567 4.10927 15.954 4.20209C16.0512 4.2949 16.1076 4.42255 16.1108 4.55695C16.1139 4.69136 16.0636 4.8215 15.9707 4.91876L13.7882 7.20413H15.9076C15.9741 7.20413 16.04 7.21723 16.1014 7.24269C16.1629 7.26815 16.2188 7.30546 16.2658 7.3525C16.3128 7.39954 16.3502 7.45538 16.3756 7.51684C16.4011 7.5783 16.4142 7.64418 16.4142 7.7107C16.4142 7.77722 16.4011 7.8431 16.3756 7.90456C16.3502 7.96602 16.3128 8.02186 16.2658 8.0689C16.2188 8.11594 16.1629 8.15325 16.1014 8.17871C16.04 8.20417 15.9741 8.21727 15.9076 8.21727H13.7882L15.9707 10.5014C16.0636 10.5986 16.1139 10.7288 16.1108 10.8632C16.1076 10.9976 16.0512 11.1252 15.954 11.218C15.8567 11.3108 15.7265 11.3612 15.5921 11.3581C15.4577 11.3549 15.33 11.2985 15.2372 11.2013L12.387 8.21727H9.92734L12.735 11.0234C12.8251 11.1193 12.8744 11.2464 12.8724 11.3779C12.8704 11.5094 12.8173 11.635 12.7244 11.7281C12.6314 11.8212 12.5059 11.8745 12.3744 11.8768C12.2429 11.879 12.1156 11.83 12.0196 11.7401L9.21059 8.93266V11.392L12.1949 14.2433C12.2447 14.2888 12.285 14.3438 12.3133 14.4051C12.3416 14.4664 12.3573 14.5327 12.3596 14.6002C12.3619 14.6676 12.3507 14.7349 12.3266 14.7979C12.3026 14.861 12.2661 14.9186 12.2195 14.9674C12.1728 15.0162 12.1169 15.0552 12.055 15.082C11.9931 15.1089 11.9264 15.1231 11.8589 15.1239C11.7914 15.1246 11.7244 15.1119 11.6619 15.0864C11.5994 15.0609 11.5426 15.0232 11.4949 14.9754L9.21059 12.7932V14.9123C9.21059 14.9788 9.19749 15.0446 9.17203 15.1061C9.14657 15.1676 9.10925 15.2234 9.0622 15.2705C9.01516 15.3175 8.95931 15.3548 8.89784 15.3803C8.83638 15.4057 8.7705 15.4188 8.70397 15.4188Z" fill="black"/>
<path d="M8.19607 22.8752C8.06523 22.8387 7.94633 22.7684 7.85132 22.6713C7.7563 22.5742 7.68853 22.4539 7.65482 22.3223C7.6211 22.1907 7.62264 22.0526 7.65927 21.9218C7.6959 21.791 7.76633 21.6722 7.86347 21.5772L21.9368 8.14989C22.0063 8.06526 22.0929 7.99634 22.191 7.94769C22.2891 7.89905 22.3965 7.87179 22.5059 7.86772C22.6153 7.86365 22.7244 7.88286 22.8258 7.92409C22.9273 7.96531 23.0188 8.0276 23.0944 8.10685C23.17 8.18609 23.2279 8.28048 23.2642 8.38376C23.3006 8.48705 23.3146 8.59688 23.3053 8.70598C23.2961 8.81509 23.2637 8.92098 23.2105 9.01666C23.1572 9.11234 23.0843 9.19562 22.9964 9.261L8.92442 22.6883C8.82907 22.7787 8.71229 22.8432 8.58508 22.8759C8.45788 22.9086 8.32316 22.9084 8.19607 22.8752Z" fill="black"/>
<path d="M24.0792 31.9886C23.9616 31.9886 23.8488 31.9418 23.7657 31.8587C23.6825 31.7755 23.6358 31.6627 23.6358 31.5451V29.2533C23.1564 29.2183 22.6832 29.1244 22.2268 28.9736L21.7988 30.0164C21.7524 30.1227 21.6662 30.2066 21.5586 30.2501C21.451 30.2936 21.3307 30.2932 21.2234 30.249C21.1162 30.2048 21.0305 30.1204 20.9848 30.0138C20.9391 29.9071 20.937 29.7868 20.9789 29.6787L21.4121 28.632C20.984 28.4161 20.584 28.1486 20.2209 27.8354L18.5966 29.4634C18.5152 29.5345 18.4108 29.5738 18.3027 29.5743C18.2176 29.5745 18.1343 29.5502 18.0627 29.5044C17.991 29.4585 17.9341 29.3931 17.8986 29.3157C17.8632 29.2384 17.8507 29.1526 17.8627 29.0684C17.8747 28.9842 17.9106 28.9052 17.9662 28.8409L19.5957 27.2116C19.2831 26.8493 19.016 26.4502 18.8003 26.0231L17.7226 26.4691C17.6739 26.487 17.6224 26.4962 17.5705 26.4962C17.4664 26.4961 17.3656 26.4593 17.2858 26.3924C17.2061 26.3254 17.1524 26.2326 17.1343 26.13C17.1161 26.0275 17.1346 25.9218 17.1866 25.8316C17.2385 25.7414 17.3206 25.6723 17.4184 25.6364L18.4561 25.2059C18.3061 24.7503 18.2126 24.278 18.1777 23.7996H15.883C15.7654 23.7996 15.6526 23.7529 15.5695 23.6698C15.4863 23.5866 15.4396 23.4738 15.4396 23.3562C15.4396 23.2386 15.4863 23.1258 15.5695 23.0427C15.6526 22.9595 15.7654 22.9128 15.883 22.9128H18.1777C18.2124 22.4344 18.3059 21.9621 18.4561 21.5065L17.4016 21.0734C17.3078 21.0331 17.2309 20.9616 17.1836 20.8711C17.1364 20.7806 17.1219 20.6766 17.1425 20.5766C17.1631 20.4767 17.2176 20.3868 17.2967 20.3224C17.3759 20.2579 17.4748 20.2227 17.5769 20.2227C17.6382 20.2225 17.6988 20.2352 17.7548 20.2601L18.799 20.6919C19.0136 20.2644 19.2799 19.8648 19.5918 19.5022L17.9688 17.8768C17.8939 17.7925 17.8539 17.6829 17.8569 17.5703C17.8599 17.4576 17.9057 17.3503 17.985 17.2701C18.0643 17.19 18.1711 17.1431 18.2838 17.139C18.3965 17.1348 18.5065 17.1737 18.5915 17.2477L20.2183 18.877C20.581 18.564 20.9806 18.2964 21.4082 18.0804L20.9738 17.035C20.9338 16.9296 20.9354 16.8129 20.9782 16.7085C21.021 16.6042 21.1019 16.52 21.2045 16.4731C21.2576 16.4489 21.3149 16.4354 21.3732 16.4334C21.4314 16.4314 21.4896 16.4409 21.5442 16.4613C21.5988 16.4818 21.6488 16.5129 21.6914 16.5527C21.734 16.5925 21.7683 16.6404 21.7924 16.6935L22.2255 17.7363C22.6811 17.5862 23.1535 17.4927 23.6319 17.4578V15.1634C23.6319 15.0455 23.6788 14.9324 23.7622 14.849C23.8456 14.7656 23.9587 14.7188 24.0767 14.7188C24.1946 14.7188 24.3077 14.7656 24.3911 14.849C24.4746 14.9324 24.5214 15.0455 24.5214 15.1634V17.4578C24.9997 17.492 25.4721 17.5846 25.9278 17.7337L26.3558 16.6909C26.4022 16.5846 26.4885 16.5007 26.596 16.4572C26.7036 16.4137 26.8239 16.4141 26.9312 16.4583C27.0384 16.5025 27.1241 16.5869 27.1698 16.6935C27.2156 16.8002 27.2177 16.9205 27.1757 17.0286L26.7426 18.0766C27.1702 18.292 27.5698 18.5591 27.9324 18.8719L29.5528 17.2516C29.6337 17.1809 29.7374 17.1419 29.8448 17.1419C29.9522 17.1419 30.056 17.1809 30.1368 17.2516C30.2257 17.3286 30.2803 17.4376 30.2888 17.5548C30.2972 17.6721 30.2588 17.7878 30.1819 17.8768L28.5538 19.506C28.8668 19.8673 29.1343 20.2656 29.3504 20.6919L30.3959 20.2588C30.4454 20.2353 30.4986 20.2209 30.5532 20.2163C30.6381 20.2161 30.7212 20.2403 30.7927 20.286C30.8643 20.3317 30.9212 20.397 30.9567 20.4741C30.9809 20.527 30.9945 20.5843 30.9966 20.6425C30.9987 20.7007 30.9893 20.7588 30.9689 20.8134C30.9486 20.8679 30.9177 20.918 30.878 20.9606C30.8383 21.0033 30.7905 21.0376 30.7375 21.0618L29.6946 21.4936C29.8443 21.9493 29.9379 22.4216 29.9731 22.8999H32.229H32.2767C32.3901 22.906 32.4967 22.9554 32.5748 23.0377C32.6528 23.1201 32.6963 23.2292 32.6963 23.3427C32.6963 23.4562 32.6528 23.5653 32.5748 23.6477C32.4967 23.73 32.3901 23.7793 32.2767 23.7855H29.9731C29.939 24.2633 29.8464 24.7352 29.6972 25.1904L30.753 25.6236C30.8073 25.6462 30.8565 25.6793 30.8979 25.7211C30.9392 25.7629 30.9718 25.8125 30.9938 25.8671C31.0158 25.9216 31.0267 25.9799 31.0259 26.0387C31.0252 26.0975 31.0127 26.1556 30.9893 26.2095C30.9659 26.2634 30.932 26.3121 30.8895 26.3528C30.8471 26.3935 30.797 26.4254 30.7421 26.4466C30.6873 26.4677 30.6288 26.4778 30.57 26.4761C30.5112 26.4745 30.4534 26.4611 30.3998 26.4369L29.3556 26.0051C29.1404 26.4329 28.8733 26.8324 28.5602 27.1948L30.1871 28.8189C30.2028 28.8324 30.2175 28.847 30.2309 28.8628C30.3072 28.9518 30.3452 29.0674 30.3365 29.1843C30.3278 29.3012 30.2732 29.4099 30.1845 29.4866C30.1404 29.5248 30.0891 29.5539 30.0337 29.5722C29.9783 29.5906 29.9198 29.5978 29.8616 29.5935C29.8034 29.5892 29.7466 29.5734 29.6945 29.5471C29.6424 29.5208 29.596 29.4845 29.558 29.4402L27.9363 27.82C27.5735 28.1328 27.1739 28.4003 26.7464 28.6166L27.1809 29.6606C27.2257 29.7692 27.2256 29.8911 27.1807 29.9996C27.1357 30.1081 27.0496 30.1944 26.9411 30.2394C26.8871 30.2615 26.8293 30.2729 26.7709 30.2729C26.6832 30.2733 26.5972 30.2476 26.5242 30.1989C26.4512 30.1502 26.3943 30.0808 26.361 29.9997L25.9291 28.9594C25.4735 29.1095 25.0012 29.203 24.5227 29.2379V31.5323C24.5224 31.6497 24.4755 31.7623 24.3924 31.8454C24.3094 31.9285 24.1968 31.9753 24.0792 31.9757V31.9886ZM24.0792 18.5419C22.8036 18.5318 21.5763 19.0288 20.6671 19.9236C19.758 20.8183 19.2416 22.0376 19.2315 23.313C19.2214 24.5885 19.7185 25.8158 20.6134 26.7248C21.5082 27.6338 22.7276 28.1502 24.0032 28.1603H24.0844C25.3605 28.1603 26.5844 27.6534 27.4867 26.7511C28.3891 25.8489 28.896 24.6251 28.896 23.3491C28.896 22.0731 28.3891 20.8494 27.4867 19.9472C26.5844 19.0449 25.3605 18.538 24.0844 18.538" fill="#D3D3D3"/>
</g>
</g>
<defs>
<clipPath id="clip0_406_2254">
<rect width="31.7046" height="31.99" fill="white" transform="translate(0.992432)"/>
</clipPath>
</defs>
</svg>
