<svg width="33" height="32" viewBox="0 0 33 32" fill="none" xmlns="http://www.w3.org/2000/svg">
<g clip-path="url(#clip0_498_1009)">
<mask id="mask0_498_1009" style="mask-type:luminance" maskUnits="userSpaceOnUse" x="0" y="0" width="33" height="32">
<path d="M32.0315 0H0.92041V32H32.0315V0Z" fill="white"/>
</mask>
<g mask="url(#mask0_498_1009)">
<path d="M16.5087 14.6904C15.8626 14.6914 15.2237 14.5553 14.6341 14.2911L1.704 8.51794C1.46902 8.41331 1.26966 8.2424 1.13036 8.02617C0.991051 7.80993 0.917847 7.55776 0.919713 7.30054C0.921578 7.04332 0.998433 6.79224 1.14086 6.57805C1.28329 6.36385 1.4851 6.19586 1.72158 6.09465L15.0735 0.376685C15.655 0.12707 16.2814 -0.00111038 16.9142 7.24604e-06C17.5914 0.00130772 18.2604 0.148631 18.8755 0.431931L31.2594 6.16119C31.4899 6.26792 31.6849 6.43881 31.8208 6.65343C31.9568 6.86806 32.0281 7.11731 32.0261 7.37138C32.0241 7.62544 31.949 7.87355 31.8096 8.08602C31.6703 8.29849 31.4727 8.46631 31.2405 8.56942L18.3732 14.2886C17.7849 14.5511 17.1478 14.6863 16.5037 14.6854M16.9155 1.09363C16.4307 1.09287 15.9509 1.19114 15.5055 1.38241L2.15224 7.10038C2.11172 7.11827 2.07726 7.14755 2.05307 7.18467C2.02889 7.22178 2.01601 7.26513 2.01601 7.30943C2.01601 7.35373 2.02889 7.39708 2.05307 7.4342C2.07726 7.47131 2.11172 7.5006 2.15224 7.51849L15.0848 13.2867C15.5347 13.4879 16.0221 13.5914 16.515 13.5905C17.0059 13.5915 17.4915 13.4888 17.94 13.2892L30.8036 7.56997C30.8437 7.55191 30.8778 7.52263 30.9018 7.48566C30.9257 7.44868 30.9384 7.40558 30.9384 7.36154C30.9384 7.3175 30.9257 7.2744 30.9018 7.23742C30.8778 7.20044 30.8437 7.17117 30.8036 7.15311L18.4197 1.4251C17.9471 1.20772 17.4331 1.09508 16.913 1.09488" fill="black"/>
<path d="M16.5223 18.0709C15.8838 18.0723 15.252 17.9397 14.6678 17.6817L1.71014 11.9788C1.47442 11.8759 1.27385 11.7064 1.13299 11.4912C0.992138 11.276 0.917114 11.0244 0.917114 10.7672C0.917114 10.51 0.992138 10.2583 1.13299 10.0431C1.27385 9.82791 1.47442 9.65846 1.71014 9.55552L2.59784 9.17006C2.66636 9.14019 2.74031 9.1248 2.81506 9.12486C2.94047 9.12537 3.06192 9.16892 3.15907 9.24824C3.25622 9.32756 3.32318 9.43783 3.34877 9.56062C3.37436 9.6834 3.35701 9.81124 3.29962 9.92276C3.24224 10.0343 3.14831 10.1227 3.03353 10.1733L2.14583 10.5587C2.1053 10.5766 2.07084 10.6059 2.04666 10.643C2.02247 10.6802 2.00959 10.7235 2.00959 10.7678C2.00959 10.8121 2.02247 10.8554 2.04666 10.8926C2.07084 10.9297 2.1053 10.959 2.14583 10.9769L15.1086 16.676C15.5589 16.8737 16.0457 16.9748 16.5375 16.9726C17.0293 16.9705 17.5152 16.8651 17.9638 16.6634L30.8034 10.8852C30.844 10.8677 30.8785 10.8386 30.9024 10.8015C30.9263 10.7643 30.9386 10.7209 30.9378 10.6768C30.9393 10.6326 30.9273 10.5891 30.9036 10.5519C30.8798 10.5147 30.8453 10.4856 30.8047 10.4683L30.1229 10.157C30.0097 10.1048 29.9176 10.0155 29.862 9.90398C29.8064 9.7924 29.7905 9.66518 29.817 9.54336C29.8435 9.42154 29.9108 9.31242 30.0078 9.23404C30.1047 9.15566 30.2255 9.11271 30.3502 9.1123C30.4283 9.11247 30.5054 9.1296 30.5762 9.16252L31.2592 9.47391C31.4906 9.57884 31.6868 9.74821 31.8245 9.96175C31.9621 10.1753 32.0353 10.424 32.0353 10.678C32.0353 10.9321 31.9621 11.1808 31.8245 11.3943C31.6868 11.6078 31.4906 11.7772 31.2592 11.8821L18.4133 17.6654C17.8191 17.9338 17.1744 18.0721 16.5223 18.0709Z" fill="black"/>
<path d="M16.5223 21.5155C15.8838 21.5168 15.252 21.3842 14.6678 21.1262L1.71014 15.4221C1.47442 15.3191 1.27385 15.1497 1.13299 14.9345C0.992138 14.7193 0.917114 14.4676 0.917114 14.2104C0.917114 13.9532 0.992138 13.7016 1.13299 13.4864C1.27385 13.2712 1.47442 13.1017 1.71014 12.9988L2.59784 12.6133C2.66635 12.5834 2.74031 12.568 2.81506 12.5681C2.94047 12.5686 3.06192 12.6122 3.15907 12.6915C3.25622 12.7708 3.32318 12.8811 3.34877 13.0039C3.37436 13.1266 3.35701 13.2545 3.29962 13.366C3.24224 13.4775 3.14831 13.566 3.03353 13.6165L2.14583 14.002C2.1053 14.0199 2.07084 14.0492 2.04666 14.0863C2.02247 14.1234 2.00959 14.1668 2.00959 14.2111C2.00959 14.2554 2.02247 14.2987 2.04666 14.3358C2.07084 14.3729 2.1053 14.4022 2.14583 14.4201L15.1086 20.1243C15.5588 20.3222 16.0455 20.4235 16.5374 20.4215C17.0292 20.4196 17.5151 20.3145 17.9638 20.113L30.8034 14.3285C30.8438 14.3111 30.8781 14.2821 30.902 14.2452C30.9259 14.2084 30.9384 14.1652 30.9378 14.1213C30.9393 14.0772 30.9273 14.0336 30.9036 13.9964C30.8798 13.9592 30.8453 13.9301 30.8047 13.9129L30.1217 13.6015C30.0526 13.5742 29.9897 13.5331 29.937 13.4807C29.8843 13.4283 29.8428 13.3658 29.8151 13.2968C29.7873 13.2279 29.7739 13.1541 29.7756 13.0798C29.7773 13.0055 29.7941 12.9324 29.825 12.8648C29.8559 12.7972 29.9002 12.7366 29.9553 12.6867C30.0103 12.6368 30.075 12.5987 30.1452 12.5746C30.2155 12.5504 30.29 12.5409 30.364 12.5465C30.4381 12.5521 30.5103 12.5727 30.5762 12.607L31.2592 12.9184C31.4903 13.024 31.6861 13.1938 31.8232 13.4077C31.9603 13.6216 32.0328 13.8705 32.0322 14.1246C32.0315 14.3786 31.9577 14.6271 31.8195 14.8403C31.6813 15.0535 31.4846 15.2223 31.2529 15.3267L18.4133 21.1099C17.8191 21.3783 17.1744 21.5166 16.5223 21.5155Z" fill="black"/>
<path d="M16.5223 25.0414C15.8838 25.0427 15.252 24.9101 14.6678 24.6521L1.71014 18.9492C1.47442 18.8463 1.27385 18.6769 1.13299 18.4616C0.992138 18.2464 0.917114 17.9948 0.917114 17.7376C0.917114 17.4804 0.992138 17.2288 1.13299 17.0136C1.27385 16.7983 1.47442 16.6289 1.71014 16.5259L2.59784 16.1405C2.66635 16.1106 2.74031 16.0952 2.81506 16.0953C2.94099 16.0951 3.06312 16.1384 3.16087 16.2178C3.25862 16.2972 3.326 16.4079 3.35166 16.5312C3.37732 16.6545 3.35969 16.7828 3.30174 16.8946C3.24379 17.0064 3.14906 17.0949 3.03353 17.145L2.14583 17.5304C2.10424 17.5469 2.0687 17.5757 2.044 17.6129C2.01931 17.6502 2.00664 17.6942 2.00771 17.7389C2.00664 17.7835 2.01914 17.8275 2.04358 17.8649C2.06801 17.9024 2.10323 17.9315 2.14457 17.9485L15.1086 23.6514C15.5589 23.8492 16.0457 23.9502 16.5375 23.9481C17.0293 23.9459 17.5152 23.8406 17.9638 23.6389L30.8034 17.8569C30.844 17.8394 30.8785 17.8103 30.9024 17.7731C30.9263 17.736 30.9386 17.6926 30.9378 17.6485C30.9391 17.6044 30.9271 17.5609 30.9033 17.5237C30.8796 17.4866 30.8452 17.4574 30.8047 17.44L30.1229 17.1286C30.0097 17.0765 29.9176 16.9872 29.862 16.8757C29.8064 16.7641 29.7905 16.6369 29.817 16.515C29.8435 16.3932 29.9108 16.2841 30.0078 16.2057C30.1047 16.1273 30.2255 16.0844 30.3502 16.084C30.4287 16.084 30.5062 16.1011 30.5774 16.1342L31.2605 16.4456C31.4919 16.5505 31.6881 16.7199 31.8257 16.9334C31.9634 17.147 32.0366 17.3957 32.0366 17.6497C32.0366 17.9038 31.9634 18.1524 31.8257 18.366C31.6881 18.5795 31.4919 18.7489 31.2605 18.8538L18.4133 24.6371C17.8191 24.9055 17.1744 25.0425 16.5223 25.0414Z" fill="black"/>
<path d="M16.5223 28.4582C15.8838 28.4595 15.252 28.3269 14.6678 28.069L1.71014 22.3661C1.47442 22.2632 1.27385 22.0937 1.13299 21.8785C0.992138 21.6633 0.917114 21.4116 0.917114 21.1544C0.917114 20.8972 0.992138 20.6456 1.13299 20.4304C1.27385 20.2152 1.47442 20.0457 1.71014 19.9428L2.59784 19.5573C2.66635 19.5274 2.74031 19.512 2.81506 19.5121C2.94099 19.512 3.06312 19.5553 3.16087 19.6347C3.25862 19.7141 3.326 19.8247 3.35166 19.948C3.37732 20.0713 3.35969 20.1997 3.30174 20.3115C3.24379 20.4233 3.14906 20.5117 3.03353 20.5618L2.14583 20.9473C2.1053 20.9652 2.07084 20.9944 2.04666 21.0316C2.02247 21.0687 2.00959 21.112 2.00959 21.1563C2.00959 21.2006 2.02247 21.244 2.04666 21.2811C2.07084 21.3182 2.1053 21.3475 2.14583 21.3654L15.1035 27.0695C15.5538 27.2673 16.0407 27.3683 16.5325 27.3662C17.0243 27.364 17.5102 27.2587 17.9587 27.057L30.8034 21.2725C30.8436 21.2544 30.8777 21.2251 30.9016 21.1882C30.9255 21.1512 30.9383 21.1081 30.9383 21.064C30.9383 21.02 30.9255 20.9769 30.9016 20.9399C30.8777 20.9029 30.8436 20.8737 30.8034 20.8556L30.1217 20.5442C30.0544 20.5156 29.9936 20.4738 29.9428 20.4213C29.892 20.3688 29.8523 20.3066 29.8258 20.2385C29.7994 20.1704 29.7869 20.0977 29.7891 20.0246C29.7912 19.9516 29.8079 19.8797 29.8383 19.8133C29.8686 19.7468 29.9119 19.6871 29.9657 19.6376C30.0195 19.5882 30.0826 19.55 30.1514 19.5253C30.2202 19.5007 30.2932 19.49 30.3661 19.494C30.4391 19.498 30.5105 19.5165 30.5762 19.5485L31.2592 19.8599C31.4906 19.9648 31.6868 20.1342 31.8245 20.3478C31.9621 20.5613 32.0353 20.81 32.0353 21.064C32.0353 21.3181 31.9621 21.5668 31.8245 21.7803C31.6868 21.9939 31.4906 22.1632 31.2592 22.2681L18.4208 28.0514C17.8266 28.3198 17.1819 28.4581 16.5299 28.457" fill="black"/>
</g>
</g>
<defs>
<clipPath id="clip0_498_1009">
<rect width="31.111" height="32" fill="white" transform="translate(0.92041)"/>
</clipPath>
</defs>
</svg>
